# xmcd CD database file
#
# Track frame offsets:
#	150
#	12769
#	24930
#	34995
#	46489
#	60749
#	77364
#	91219
#	108810
#	124414
#	141341
#	153090
#	166396
#
# Disc length: 2443 seconds
#
# Revision: 0
# Processed by: cddbd v1.5.2PL0 Copyright (c) Steve Scherf et al.
# Submitted via: CDex 1.79
#
DISCID=9909890d
DTITLE=Julie Ingram - Keep On Believin`
DYEAR=2007
DGENRE=Country
TTITLE0=Anytime Anywhere
TTITLE1=LongShot Girl Part 2
TTITLE2=Gone To Kentucky
TTITLE3=Make Me Feel Like A Woman
TTITLE4=A Place Called Love
TTITLE5=Keep On Believin` 
TTITLE6=Cheating On The Family
TTITLE7=I Know What You`re Thinkin`
TTITLE8=Fearless
TTITLE9=Shine On
TTITLE10=What We Really Want
TTITLE11=Fastest Healin` Broken Heart In Town
TTITLE12=Texas Heartache
EXTD=YEAR: 2007
EXTT0=
EXTT1=
EXTT2=
EXTT3=
EXTT4=
EXTT5=
EXTT6=
EXTT7=
EXTT8=
EXTT9=
EXTT10=
EXTT11=
EXTT12=
PLAYORDER=
